<svg width="32" height="32" viewBox="0 0 32 32" fill="none" xmlns="http://www.w3.org/2000/svg">
<path d="M17.5132 16.4687L10.8907 19.9575C10.4021 20.2149 10.2146 20.8197 10.472 21.3083C10.7295 21.797 11.3342 21.9844 11.8229 21.727L19.3301 17.7721C19.8187 17.5147 20.0062 16.9099 19.7488 16.4213L15.7939 8.91403C15.5365 8.4254 14.9317 8.23796 14.4431 8.49538C13.9544 8.75279 13.767 9.35758 14.0244 9.8462L17.5132 16.4687Z" fill="white"/>
<mask id="mask0_11:3379" style="mask-type:alpha" maskUnits="userSpaceOnUse" x="10" y="8" width="10" height="14">
<path d="M17.5132 16.4687L10.8907 19.9575C10.4021 20.2149 10.2146 20.8197 10.472 21.3083C10.7295 21.797 11.3342 21.9844 11.8229 21.727L19.3301 17.7721C19.8187 17.5147 20.0062 16.9099 19.7488 16.4213L15.7939 8.91403C15.5365 8.4254 14.9317 8.23796 14.4431 8.49538C13.9544 8.75279 13.767 9.35758 14.0244 9.8462L17.5132 16.4687Z" fill="white"/>
</mask>
<g mask="url(#mask0_11:3379)">
<rect x="8.08984" y="0.984375" width="24" height="24" transform="rotate(17.2194 8.08984 0.984375)" fill="white"/>
</g>
</svg>
