<svg width="24" height="24" viewBox="0 0 24 24" fill="none" xmlns="http://www.w3.org/2000/svg">
<path fill-rule="evenodd" clip-rule="evenodd" d="M11.1044 1.55738L8.24683 7.34647L1.85646 8.28051C1.03655 8.40036 0.709762 9.4082 1.30336 9.98636L5.92657 14.4894L4.83548 20.851C4.69536 21.6679 5.55291 22.2909 6.28654 21.9051L12.0011 18.8998L17.7156 21.9051C18.4493 22.2909 19.3068 21.6679 19.1667 20.851L18.0756 14.4894L22.6988 9.98636C23.2924 9.4082 22.9656 8.40036 22.1457 8.28051L15.7554 7.34647L12.8978 1.55738C12.531 0.814208 11.4712 0.814208 11.1044 1.55738ZM9.05572 9.24949C9.38107 9.20193 9.66226 8.99747 9.8078 8.70262L12.0011 4.25925L14.1944 8.70262C14.3399 8.99747 14.6211 9.20193 14.9465 9.24949L19.8527 9.9666L16.3034 13.4236C16.0675 13.6534 15.9598 13.9845 16.0155 14.309L16.8529 19.1917L12.4665 16.8849C12.1752 16.7317 11.827 16.7317 11.5356 16.8849L7.14927 19.1917L7.9867 14.309C8.04236 13.9845 7.93469 13.6534 7.69882 13.4236L4.1495 9.9666L9.05572 9.24949Z" fill="white"/>
</svg>
