<svg width="52" height="52" viewBox="0 0 52 52" fill="none" xmlns="http://www.w3.org/2000/svg">
<mask id="mask0_25:113" style="mask-type:alpha" maskUnits="userSpaceOnUse" x="19" y="13" width="15" height="25">
<path d="M22.6693 20.3388C22.6693 16.6848 25.654 13.7227 29.3359 13.7227H32.6693C33.2829 13.7227 33.7804 14.2163 33.7804 14.8254V19.2361C33.7804 19.8451 33.2829 20.3388 32.6693 20.3388H29.3359V22.5442H32.6693C33.3921 22.5442 33.9225 23.2184 33.7472 23.9144L32.6361 28.3251C32.5125 28.816 32.068 29.1604 31.5582 29.1604H29.3359V36.8792C29.3359 37.4882 28.8385 37.9819 28.2248 37.9819H23.7804C23.1667 37.9819 22.6693 37.4882 22.6693 36.8792V29.1604H20.447C19.8334 29.1604 19.3359 28.6667 19.3359 28.0577V23.6469C19.3359 23.0379 19.8334 22.5442 20.447 22.5442H22.6693V20.3388ZM31.5582 15.928H29.3359C26.8813 15.928 24.8915 17.9028 24.8915 20.3388V23.6469C24.8915 24.2559 24.394 24.7496 23.7804 24.7496H21.5582V26.955H23.7804C24.394 26.955 24.8915 27.4487 24.8915 28.0577V35.7765H27.1137V28.0577C27.1137 27.4487 27.6112 26.955 28.2248 26.955H30.6906L31.2462 24.7496H28.2248C27.6112 24.7496 27.1137 24.2559 27.1137 23.6469V20.3388C27.1137 19.1208 28.1086 18.1334 29.3359 18.1334H31.5582V15.928Z" fill="white"/>
</mask>
<g mask="url(#mask0_25:113)">
<path d="M22.6693 20.3388C22.6693 16.6848 25.654 13.7227 29.3359 13.7227H32.6693C33.2829 13.7227 33.7804 14.2163 33.7804 14.8254V19.2361C33.7804 19.8451 33.2829 20.3388 32.6693 20.3388H29.3359V22.5442H32.6693C33.3921 22.5442 33.9225 23.2184 33.7472 23.9144L32.6361 28.3251C32.5125 28.816 32.068 29.1604 31.5582 29.1604H29.3359V36.8792C29.3359 37.4882 28.8385 37.9819 28.2248 37.9819H23.7804C23.1667 37.9819 22.6693 37.4882 22.6693 36.8792V29.1604H20.447C19.8334 29.1604 19.3359 28.6667 19.3359 28.0577V23.6469C19.3359 23.0379 19.8334 22.5442 20.447 22.5442H22.6693V20.3388ZM31.5582 15.928H29.3359C26.8813 15.928 24.8915 17.9028 24.8915 20.3388V23.6469C24.8915 24.2559 24.394 24.7496 23.7804 24.7496H21.5582V26.955H23.7804C24.394 26.955 24.8915 27.4487 24.8915 28.0577V35.7765H27.1137V28.0577C27.1137 27.4487 27.6112 26.955 28.2248 26.955H30.6906L31.2462 24.7496H28.2248C27.6112 24.7496 27.1137 24.2559 27.1137 23.6469V20.3388C27.1137 19.1208 28.1086 18.1334 29.3359 18.1334H31.5582V15.928Z" fill="black"/>
<path d="M39.3346 12.6094H12.668V39.0742H39.3346V12.6094Z" fill="black"/>
</g>
<path d="M26 50.6614C39.8071 50.6614 50.9999 39.553 50.9999 25.8502C50.9999 12.1474 39.8071 1.03906 26 1.03906C12.1929 1.03906 1 12.1474 1 25.8502C1 39.553 12.1929 50.6614 26 50.6614Z" stroke="#D9D9D9"/>
</svg>
