<svg width="52" height="52" viewBox="0 0 52 52" fill="none" xmlns="http://www.w3.org/2000/svg">
<mask id="mask0_25:104" style="mask-type:alpha" maskUnits="userSpaceOnUse" x="12" y="14" width="28" height="23">
<path d="M37.5814 15.0372C38.4204 14.4499 39.5444 15.2093 39.3014 16.1993C38.9208 17.7503 38.1579 19.18 37.085 20.3615C37.1016 20.5401 37.1102 20.7199 37.1108 20.9007C37.1108 33.9787 24.3929 40.697 13.2378 34.5463C12.2148 33.9823 12.6522 32.4343 13.8216 32.4805C15.6956 32.5545 17.5507 32.1847 19.2376 31.4135C16.7885 29.9153 15.2204 27.9318 14.4511 25.5854C13.6568 23.1628 13.7727 20.6168 14.4354 18.1989C14.6358 17.4675 14.8395 16.9164 14.9843 16.5932C15.335 15.81 16.4126 15.7059 16.9089 16.4073C18.7662 19.0321 21.7029 20.6707 24.8882 20.9079C24.8711 18.3886 26.4315 16.1211 28.8057 15.2218C30.9529 14.4084 33.3547 14.8695 35.0361 16.3629C35.9384 16.0338 36.7943 15.5883 37.5814 15.0372ZM35.0534 18.6815C34.6349 18.8065 34.1814 18.6765 33.8946 18.3492C32.8298 17.1342 31.114 16.7081 29.5982 17.2823C28.0823 17.8565 27.0889 19.3089 27.1108 20.9338V22.0366C27.1108 22.6345 26.6307 23.1234 26.0284 23.1389C22.4054 23.2322 18.944 21.8167 16.4486 19.2943C16.0097 21.1746 15.9776 23.1136 16.5642 24.903C17.3165 27.1974 19.0385 29.06 22.0065 30.3692C22.8029 30.7204 22.9003 31.8035 22.1792 32.2893C20.9358 33.127 19.5733 33.7557 18.1463 34.1599C26.6787 36.3878 34.8885 30.7662 34.8885 20.9044C34.8878 20.6655 34.8646 20.4271 34.8194 20.1925C34.7498 19.8309 34.8665 19.4587 35.1306 19.2003C35.3781 18.958 35.6073 18.6998 35.8171 18.4278C35.5654 18.5199 35.3107 18.6046 35.0534 18.6815Z" fill="white"/>
</mask>
<g mask="url(#mask0_25:104)">
<path d="M37.5814 15.0372C38.4204 14.4499 39.5444 15.2093 39.3014 16.1993C38.9208 17.7503 38.1579 19.18 37.085 20.3615C37.1016 20.5401 37.1102 20.7199 37.1108 20.9007C37.1108 33.9787 24.3929 40.697 13.2378 34.5463C12.2148 33.9823 12.6522 32.4343 13.8216 32.4805C15.6956 32.5545 17.5507 32.1847 19.2376 31.4135C16.7885 29.9153 15.2204 27.9318 14.4511 25.5854C13.6568 23.1628 13.7727 20.6168 14.4354 18.1989C14.6358 17.4675 14.8395 16.9164 14.9843 16.5932C15.335 15.81 16.4126 15.7059 16.9089 16.4073C18.7662 19.0321 21.7029 20.6707 24.8882 20.9079C24.8711 18.3886 26.4315 16.1211 28.8057 15.2218C30.9529 14.4084 33.3547 14.8695 35.0361 16.3629C35.9384 16.0338 36.7943 15.5883 37.5814 15.0372ZM35.0534 18.6815C34.6349 18.8065 34.1814 18.6765 33.8946 18.3492C32.8298 17.1342 31.114 16.7081 29.5982 17.2823C28.0823 17.8565 27.0889 19.3089 27.1108 20.9338V22.0366C27.1108 22.6345 26.6307 23.1234 26.0284 23.1389C22.4054 23.2322 18.944 21.8167 16.4486 19.2943C16.0097 21.1746 15.9776 23.1136 16.5642 24.903C17.3165 27.1974 19.0385 29.06 22.0065 30.3692C22.8029 30.7204 22.9003 31.8035 22.1792 32.2893C20.9358 33.127 19.5733 33.7557 18.1463 34.1599C26.6787 36.3878 34.8885 30.7662 34.8885 20.9044C34.8878 20.6655 34.8646 20.4271 34.8194 20.1925C34.7498 19.8309 34.8665 19.4587 35.1306 19.2003C35.3781 18.958 35.6073 18.6998 35.8171 18.4278C35.5654 18.5199 35.3107 18.6046 35.0534 18.6815Z" fill="black"/>
<path d="M39.3308 12.6172H12.6641V39.0823H39.3308V12.6172Z" fill="black"/>
</g>
<path d="M26 50.6614C39.8071 50.6614 51 39.553 51 25.8502C51 12.1474 39.8071 1.03906 26 1.03906C12.1929 1.03906 1 12.1474 1 25.8502C1 39.553 12.1929 50.6614 26 50.6614Z" stroke="#D9D9D9"/>
</svg>
