<svg width="52" height="52" viewBox="0 0 52 52" fill="none" xmlns="http://www.w3.org/2000/svg">
<mask id="mask0_25:122" style="mask-type:alpha" maskUnits="userSpaceOnUse" x="13" y="13" width="26" height="25">
<path d="M31.5591 13.7227C35.241 13.7227 38.2258 16.6848 38.2258 20.3388V31.3658C38.2258 35.0198 35.241 37.9819 31.5591 37.9819H20.4479C16.766 37.9819 13.7812 35.0198 13.7812 31.3658V20.3388C13.7812 16.6848 16.766 13.7227 20.4479 13.7227H31.5591ZM31.5591 15.928H20.4479C17.9933 15.928 16.0035 17.9028 16.0035 20.3388V31.3658C16.0035 33.8018 17.9933 35.7765 20.4479 35.7765H31.5591C34.0137 35.7765 36.0035 33.8018 36.0035 31.3658V20.3388C36.0035 17.9028 34.0137 15.928 31.5591 15.928ZM26.8665 20.3508C29.2873 20.707 31.1881 22.5934 31.5471 24.9959C31.8986 27.3487 30.6902 29.66 28.5493 30.7294C26.4085 31.7988 23.8179 31.3851 22.1232 29.7032C20.4285 28.0213 20.0116 25.4504 21.0892 23.3258C22.1667 21.2012 24.4957 20.0019 26.8665 20.3508ZM23.0741 24.3173C22.4276 25.5921 22.6777 27.1346 23.6946 28.1438C24.7114 29.1529 26.2657 29.4011 27.5502 28.7595C28.8347 28.1179 29.5598 26.731 29.3489 25.3193C29.1335 23.8779 27.993 22.746 26.5405 22.5323C25.1181 22.3229 23.7207 23.0425 23.0741 24.3173ZM33.7694 19.0745C33.6976 18.594 33.3174 18.2168 32.8333 18.1455C32.3591 18.0758 31.8934 18.3156 31.6779 18.7405C31.4624 19.1654 31.5457 19.6796 31.8847 20.016C32.2236 20.3523 32.7417 20.4351 33.1698 20.2212C33.598 20.0073 33.8397 19.5451 33.7694 19.0745Z" fill="white"/>
</mask>
<g mask="url(#mask0_25:122)">
<path d="M31.5591 13.7227C35.241 13.7227 38.2258 16.6848 38.2258 20.3388V31.3658C38.2258 35.0198 35.241 37.9819 31.5591 37.9819H20.4479C16.766 37.9819 13.7812 35.0198 13.7812 31.3658V20.3388C13.7812 16.6848 16.766 13.7227 20.4479 13.7227H31.5591ZM31.5591 15.928H20.4479C17.9933 15.928 16.0035 17.9028 16.0035 20.3388V31.3658C16.0035 33.8018 17.9933 35.7765 20.4479 35.7765H31.5591C34.0137 35.7765 36.0035 33.8018 36.0035 31.3658V20.3388C36.0035 17.9028 34.0137 15.928 31.5591 15.928ZM26.8665 20.3508C29.2873 20.707 31.1881 22.5934 31.5471 24.9959C31.8986 27.3487 30.6902 29.66 28.5493 30.7294C26.4085 31.7988 23.8179 31.3851 22.1232 29.7032C20.4285 28.0213 20.0116 25.4504 21.0892 23.3258C22.1667 21.2012 24.4957 20.0019 26.8665 20.3508ZM23.0741 24.3173C22.4276 25.5921 22.6777 27.1346 23.6946 28.1438C24.7114 29.1529 26.2657 29.4011 27.5502 28.7595C28.8347 28.1179 29.5598 26.731 29.3489 25.3193C29.1335 23.8779 27.993 22.746 26.5405 22.5323C25.1181 22.3229 23.7207 23.0425 23.0741 24.3173ZM33.7694 19.0745C33.6976 18.594 33.3174 18.2168 32.8333 18.1455C32.3591 18.0758 31.8934 18.3156 31.6779 18.7405C31.4624 19.1654 31.5457 19.6796 31.8847 20.016C32.2236 20.3523 32.7417 20.4351 33.1698 20.2212C33.598 20.0073 33.8397 19.5451 33.7694 19.0745Z" fill="black"/>
<path d="M39.3307 12.6094H12.6641V39.0742H39.3307V12.6094Z" fill="black"/>
</g>
<path d="M26.0001 50.6614C39.8073 50.6614 51.0002 39.553 51.0002 25.8502C51.0002 12.1474 39.8073 1.03906 26.0001 1.03906C12.1929 1.03906 1 12.1474 1 25.8502C1 39.553 12.1929 50.6614 26.0001 50.6614Z" stroke="#D9D9D9"/>
</svg>
